<?xml version="1.0" standalone="no"?>
<!DOCTYPE svg PUBLIC "-//W3C//DTD SVG 20010904//EN"
 "http://www.w3.org/TR/2001/REC-SVG-20010904/DTD/svg10.dtd">
<svg version="1.0" xmlns="http://www.w3.org/2000/svg"
 width="740.000000pt" height="740.000000pt" viewBox="0 0 740.000000 740.000000"
 preserveAspectRatio="xMidYMid meet">
<metadata>
Created by potrace 1.16, written by Peter Selinger 2001-2019
</metadata>
<g transform="translate(0.000000,740.000000) scale(0.100000,-0.100000)"
fill="#000000" stroke="none">
<path d="M3438 6866 c-90 -16 -137 -31 -198 -61 -52 -27 -119 -95 -139 -142
-11 -28 -19 -33 -60 -38 -508 -69 -833 -196 -970 -377 -77 -103 -130 -243
-131 -344 0 -29 -3 -32 -42 -38 -102 -17 -198 -88 -245 -185 l-28 -56 0 -240
c0 -224 1 -243 21 -286 44 -95 130 -166 234 -192 l55 -14 12 -64 c26 -142 88
-255 194 -354 136 -127 413 -230 772 -286 76 -12 134 -25 130 -29 -4 -3 -42
-16 -83 -29 -108 -33 -303 -131 -386 -194 l-70 -54 -95 -5 c-158 -7 -280 -69
-429 -218 -189 -188 -333 -447 -459 -826 -54 -162 -124 -434 -142 -554 -37
-242 65 -475 236 -539 83 -31 196 -27 277 11 113 53 202 161 257 314 18 48 50
187 76 322 25 130 48 248 51 262 4 18 18 -24 49 -145 130 -516 369 -888 713
-1110 293 -189 664 -247 1009 -160 386 98 709 381 913 800 60 122 137 333 160
438 8 32 16 60 20 62 4 2 19 -64 35 -148 52 -280 99 -413 182 -515 145 -177
393 -201 541 -52 73 73 116 179 128 313 8 89 -6 183 -57 390 -202 820 -559
1323 -966 1363 -42 4 -76 13 -88 24 -87 75 -262 166 -423 220 -64 22 -110 41
-102 44 8 2 51 9 95 16 225 32 470 106 630 188 183 94 310 272 334 466 l6 50
45 8 c105 18 208 98 253 196 21 44 22 62 22 287 0 224 -1 243 -21 286 -46 98
-133 168 -239 192 l-60 14 -6 59 c-15 144 -70 256 -180 366 -64 64 -94 85
-181 127 -169 81 -344 133 -587 173 l-133 22 -18 42 c-37 86 -126 147 -268
186 -66 18 -112 21 -322 24 -173 2 -267 -1 -322 -10z m567 -56 c139 -26 231
-71 274 -135 13 -19 22 -37 20 -40 -3 -2 -50 1 -104 7 -117 13 -735 16 -912 5
-80 -5 -123 -4 -123 2 0 6 14 26 32 46 56 65 165 106 325 125 98 11 408 5 488
-10z m126 -220 c391 -31 700 -101 929 -212 87 -42 117 -63 175 -122 80 -81
128 -169 150 -273 18 -85 22 -1062 4 -1159 -17 -96 -81 -216 -153 -289 -163
-162 -527 -276 -1051 -327 -175 -17 -809 -17 -980 0 -512 52 -862 158 -1028
312 -75 69 -119 137 -152 233 l-25 76 0 563 c0 350 4 580 11 608 20 90 78 190
150 261 169 167 562 285 1089 328 153 12 724 13 881 1z m-2193 -1207 l-3 -428
-30 4 c-79 9 -169 83 -207 168 -17 39 -19 67 -18 260 1 239 5 263 69 335 37
42 122 88 163 88 l28 0 -2 -427z m3650 390 c55 -34 107 -99 122 -151 5 -20 10
-132 10 -248 0 -206 -1 -211 -26 -262 -39 -78 -113 -134 -206 -156 l-28 -6 0
431 0 432 41 -6 c23 -3 62 -18 87 -34z m-1298 -1694 c0 -56 -5 -92 -17 -117
-44 -93 -186 -178 -359 -213 -81 -17 -121 -20 -224 -16 -69 4 -153 13 -188 22
-93 22 -203 77 -258 126 -63 59 -84 106 -84 197 l0 73 153 -8 c193 -10 725 -7
837 5 47 5 97 10 113 11 l27 1 0 -81z m-1187 -38 c3 -39 15 -87 26 -109 51
-101 192 -191 366 -233 135 -33 343 -31 477 4 170 45 306 134 353 232 11 22
21 70 23 108 3 46 8 67 17 67 20 0 213 -69 275 -98 119 -56 206 -117 300 -211
102 -102 154 -185 192 -305 37 -118 34 -431 -7 -711 -25 -170 -35 -205 -53
-205 -11 0 -13 -3 -6 -8 32 -20 -63 -321 -166 -527 -85 -169 -176 -299 -290
-415 -114 -115 -202 -179 -345 -250 -233 -115 -466 -152 -722 -114 -498 74
-904 457 -1102 1040 -100 294 -163 727 -148 1014 18 346 243 598 667 751 58
21 112 38 121 38 13 1 17 -13 22 -68z m-663 -215 c0 -3 -23 -35 -50 -71 -87
-115 -134 -231 -150 -375 -9 -81 0 -382 15 -485 4 -27 -7 -105 -34 -240 -22
-110 -52 -261 -66 -335 -43 -229 -91 -345 -177 -437 -73 -76 -143 -108 -238
-108 -64 1 -83 5 -129 30 -165 91 -217 294 -152 590 92 412 238 789 402 1035
118 178 296 330 434 373 69 22 145 33 145 23z m2641 -12 c112 -33 188 -82 299
-194 186 -185 313 -413 440 -785 123 -362 172 -643 137 -782 -45 -175 -151
-272 -294 -273 -113 0 -203 49 -279 153 -76 103 -100 184 -189 643 -24 127
-24 134 -10 230 21 146 38 437 30 532 -13 166 -68 314 -160 426 -61 76 -61 76
26 50z"/>
<path d="M3470 6240 c-571 -24 -1032 -141 -1195 -303 -53 -54 -97 -133 -114
-208 -6 -26 -11 -214 -11 -454 0 -455 3 -484 63 -584 64 -107 171 -177 379
-245 232 -77 504 -119 888 -137 534 -25 1070 29 1395 141 222 77 317 146 382
278 l38 76 3 435 c4 476 1 505 -51 604 -74 141 -246 236 -567 311 -296 71
-770 104 -1210 86z m-385 -701 c113 -42 195 -162 195 -284 0 -42 -5 -60 -23
-81 -26 -30 -59 -33 -210 -15 -58 7 -112 6 -182 -2 -131 -16 -161 -12 -183 21
-23 35 -20 136 6 195 36 82 115 151 202 178 49 15 138 9 195 -12z m1522 -7
c92 -48 150 -121 173 -220 13 -58 8 -103 -16 -140 -16 -25 -17 -25 -128 -17
-137 11 -162 11 -307 0 l-115 -8 -23 29 c-20 25 -23 37 -19 94 6 84 41 153
109 214 29 26 71 52 98 61 64 21 174 14 228 -13z m-698 -646 c20 -24 -7 -104
-50 -147 -92 -92 -244 -69 -299 45 -20 42 -26 96 -13 109 3 4 84 7 178 7 136
0 175 -3 184 -14z"/>
</g>
</svg>
